<svg id="853cf74f-fcb0-4147-bd07-5ce4248234ac" data-name="图层 1" xmlns="http://www.w3.org/2000/svg" viewBox="0 0 568.05 155.56"><title>WildMember</title><path d="M19.23,75.09v3h-3v-3Zm3.39-50.75v3H19.57v-3Zm0,3.38v3.05H19.57V27.72Zm0,3.38v3H19.57v-3Zm0,3.39v3H19.57v-3Zm0,3.38v3.05H19.57V37.87Zm0,3.38v3H19.57v-3Zm0,3.39v3H19.57v-3Zm0,3.38v3H19.57V48Zm0,3.38v3.05H19.57V51.4Zm0,10.15v3H19.57v-3Zm0,13.54v3H19.57v-3Zm0,3.38v3H19.57v-3ZM26,24.34v3H23v-3Zm0,13.53v3.05H23V37.87ZM26,51.4v3.05H23V51.4Zm0,10.15v3H23v-3Zm0,13.54v3H23v-3Zm3.38-50.75v3h-3v-3Zm0,13.53v3.05h-3V37.87Zm0,13.53v3.05h-3V51.4Zm0,10.15v3h-3v-3Zm0,13.54v3h-3v-3Zm3.39-50.75v3H29.72v-3Zm0,3.38v3.05H29.72V27.72Zm0,3.38v3H29.72v-3Zm0,3.39v3H29.72v-3Zm0,3.38v3.05H29.72V37.87Zm0,3.38v3H29.72v-3Zm0,3.39v3H29.72v-3Zm0,3.38v3H29.72V48Zm0,3.38v3.05H29.72V51.4Zm0,3.39v3H29.72v-3Zm0,3.38v3H29.72v-3Zm0,3.38v3H29.72v-3Zm0,3.39v3H29.72v-3Zm0,3.38v3.05H29.72V68.32Zm0,3.38v3H29.72v-3Zm3.38-47.36v3h-3v-3Zm0,13.53v3.05h-3V37.87Zm0,13.53v3.05h-3V51.4Zm0,10.15v3h-3v-3Zm0,10.15v3h-3v-3Zm3.38-47.36v3h-3v-3Zm0,13.53v3.05h-3V37.87Zm0,13.53v3.05h-3V51.4Zm0,10.15v3h-3v-3Zm0,10.15v3h-3v-3Zm3.39-47.36v3H39.87v-3Zm0,3.38v3.05H39.87V27.72Zm0,3.38v3H39.87v-3Zm0,3.39v3H39.87v-3Zm0,3.38v3.05H39.87V37.87Zm0,3.38v3H39.87v-3Zm0,3.39v3H39.87v-3Zm0,3.38v3H39.87V48Zm0,3.38v3.05H39.87V51.4Zm0,10.15v3H39.87v-3Zm0,10.15v3H39.87v-3ZM46.3,44.64v3h-3v-3Zm3.38-20.3v3h-3v-3Zm0,20.3v3h-3v-3Zm3.39-20.3v3H50v-3Zm0,6.76v3H50v-3Zm0,13.54v3H50v-3Zm0,30.45v3H50v-3Zm3.38-50.75v3H53.4v-3Zm0,10.15v3H53.4v-3Zm0,10.15v3H53.4v-3Zm0,33.83v3H53.4v-3Zm3.38-54.13v3h-3v-3Zm0,13.53v3.05h-3V37.87Zm0,6.77v3h-3v-3Zm0,3.38v3h-3V48Zm0,3.38v3.05h-3V51.4Zm0,3.39v3h-3v-3Zm0,3.38v3h-3v-3Zm0,3.38v3h-3v-3Zm0,3.39v3h-3v-3Zm0,3.38v3.05h-3V68.32Zm0,3.38v3h-3v-3Zm0,3.39v3h-3v-3Zm3.39-50.75v3h-3v-3Zm0,10.15v3h-3v-3Zm0,6.76v3h-3v-3Zm0,3.39v3h-3v-3Zm3.38-20.3v3h-3v-3Zm0,6.76v3h-3v-3Zm0,13.54v3h-3v-3ZM70,24.34v3h-3v-3Zm0,3.38v3.05h-3V27.72Zm0,16.92v3h-3v-3Zm0,6.76v3.05h-3V51.4Zm3.39-6.76v3H70.32v-3Zm0,3.38v3H70.32V48Z" transform="translate(-16.19 -20.95)"/><path d="M80.13,44.64v3h-3v-3Zm0,30.45v3h-3v-3Zm3.39-33.84v3h-3v-3Zm0,33.84v3h-3v-3Zm3.38-40.6v3H83.85v-3Zm0,3.38v3.05H83.85V37.87Zm0,16.92v3H83.85v-3Zm0,20.3v3H83.85v-3Zm3.38-50.75v3h-3v-3Zm0,3.38v3.05h-3V27.72Zm0,3.38v3h-3v-3Zm0,3.39v3h-3v-3Zm0,20.3v3h-3v-3Zm0,20.3v3h-3v-3Zm3.39-40.6v3h-3v-3Zm0,20.3v3h-3v-3Zm0,20.3v3h-3v-3Zm3.38-40.6v3H94v-3Zm0,20.3v3H94v-3Zm0,20.3v3H94v-3Zm3.38-40.6v3h-3v-3Zm0,20.3v3h-3v-3Zm0,20.3v3h-3v-3Zm3.38-40.6v3h-3v-3Zm0,20.3v3h-3v-3Zm0,20.3v3h-3v-3ZM107.2,21V24h-3V21Zm0,3.39v3h-3v-3Zm0,3.38v3.05h-3V27.72Zm0,3.38v3h-3v-3Zm0,3.39v3h-3v-3Zm0,3.38v3.05h-3V37.87Zm0,3.38v3h-3v-3Zm0,3.39v3h-3v-3Zm0,3.38v3h-3V48Zm0,3.38v3.05h-3V51.4Zm0,3.39v3h-3v-3Zm0,3.38v3h-3v-3Zm0,3.38v3h-3v-3Zm0,3.39v3h-3v-3Zm0,3.38v3.05h-3V68.32Zm0,3.38v3h-3v-3Zm0,3.39v3h-3v-3Zm3.38-40.6v3h-3v-3Zm0,20.3v3h-3v-3Zm0,20.3v3h-3v-3ZM114,34.49v3h-3v-3Zm0,20.3v3h-3v-3Zm0,20.3v3h-3v-3Zm3.39-40.6v3h-3v-3Zm0,20.3v3h-3v-3Zm0,20.3v3h-3v-3Zm3.38-40.6v3h-3v-3Zm0,20.3v3h-3v-3Zm0,20.3v3h-3v-3Zm3.38-40.6v3h-3v-3Zm0,20.3v3h-3v-3Zm0,20.3v3h-3v-3Zm3.39-40.6v3h-3v-3Zm0,20.3v3h-3v-3Zm0,20.3v3h-3v-3Zm3.38-40.6v3h-3v-3Zm0,40.6v3h-3v-3Zm3.38,0v3h-3v-3Z" transform="translate(-16.19 -20.95)"/><path d="M144.41,31.1v3h-3v-3Zm0,3.39v3h-3v-3Zm0,3.38v3.05h-3V37.87Zm0,3.38v3h-3v-3Zm0,3.39v3h-3v-3Zm0,3.38v3h-3V48Zm0,3.38v3.05h-3V51.4Zm0,3.39v3h-3v-3Zm0,3.38v3h-3v-3Zm0,3.38v3h-3v-3Zm0,3.39v3h-3v-3Zm0,3.38v3.05h-3V68.32Zm0,3.38v3h-3v-3Zm0,3.39v3h-3v-3Zm3.39-47.37v3.05h-3.05V27.72Zm0,3.38v3h-3.05v-3Zm0,20.3v3.05h-3.05V51.4Zm0,20.3v3h-3.05v-3Zm3.38-47.36v3h-3v-3Zm0,6.76v3h-3v-3Zm0,20.3v3.05h-3V51.4Zm0,20.3v3h-3v-3ZM154.56,21V24h-3V21Zm0,10.15v3h-3v-3Zm0,20.3v3.05h-3V51.4Zm0,20.3v3h-3v-3ZM158,31.1v3h-3v-3Zm0,20.3v3.05h-3V51.4Zm0,20.3v3h-3v-3Zm3.38-40.6v3h-3v-3Zm0,3.39v3h-3v-3Zm0,3.38v3.05h-3V37.87Zm0,3.38v3h-3v-3Zm0,3.39v3h-3v-3Zm0,3.38v3h-3V48Zm0,3.38v3.05h-3V51.4Zm0,3.39v3h-3v-3Zm0,3.38v3h-3v-3Zm0,3.38v3h-3v-3Zm0,3.39v3h-3v-3Zm0,3.38v3.05h-3V68.32Zm0,3.38v3h-3v-3Zm0,3.39v3h-3v-3Zm3.38-37.22v3.05h-3V37.87Zm3.39-3.38v3h-3v-3Zm3.38-6.77v3.05h-3V27.72Zm0,3.38v3h-3v-3Zm0,13.54v3h-3v-3ZM174.86,21V24h-3V21Zm0,3.39v3h-3v-3Zm0,6.76v3h-3v-3Zm0,16.92v3h-3V48Zm3.39-16.92v3H175.2v-3Zm0,20.3v3.05H175.2V51.4Zm0,3.39v3H175.2v-3Zm3.38-23.69v3h-3v-3Zm0,44v3h-3v-3Zm3.38-44v3h-3v-3Zm0,47.37v3h-3v-3ZM188.4,31.1v3h-3.05v-3Zm0,44v3h-3.05v-3Zm3.38-44v3h-3.05v-3Zm0,3.39v3h-3.05v-3Zm0,3.38v3.05h-3.05V37.87Zm0,3.38v3h-3.05v-3Zm0,3.39v3h-3.05v-3Zm0,3.38v3h-3.05V48Zm0,3.38v3.05h-3.05V51.4Zm0,3.39v3h-3.05v-3Zm0,3.38v3h-3.05v-3Zm0,3.38v3h-3.05v-3Zm0,3.39v3h-3.05v-3Zm0,3.38v3.05h-3.05V68.32Zm0,3.38v3h-3.05v-3Z" transform="translate(-16.19 -20.95)"/><path d="M201.93,31.1v3h-3.05v-3Zm0,23.69v3h-3.05v-3Zm3.38-23.69v3h-3v-3Zm0,20.3v3.05h-3V51.4ZM208.7,21V24h-3V21Zm0,10.15v3h-3v-3Zm0,16.92v3h-3V48Zm3.38-23.68v3H209v-3Zm0,6.76v3H209v-3Zm0,10.15v3H209v-3Zm0,3.39v3H209v-3Zm0,3.38v3H209V48Zm0,3.38v3.05H209V51.4Zm0,3.39v3H209v-3Zm0,3.38v3H209v-3Zm0,3.38v3H209v-3Zm0,3.39v3H209v-3Zm0,3.38v3.05H209V68.32Zm0,3.38v3H209v-3Zm0,3.39v3H209v-3Zm0,3.38v3H209v-3Zm3.38-47.37v3h-3v-3Zm0,3.39v3h-3v-3Zm0,3.38v3.05h-3V37.87Zm0,10.15v3h-3V48Zm3.39,3.38v3.05h-3V51.4Zm0,3.39v3h-3v-3Zm0,20.3v3h-3v-3Zm3.38-33.84v3h-3v-3Zm0,33.84v3h-3v-3Zm3.38-33.84v3h-3v-3Zm0,33.84v3h-3v-3ZM229,41.25v3H226v-3Zm0,33.84v3H226v-3Zm3.38-33.84v3h-3v-3Zm0,33.84v3h-3v-3ZM235.76,21V24h-3V21Zm0,3.39v3h-3v-3Zm0,3.38v3.05h-3V27.72Zm0,3.38v3h-3v-3Zm0,3.39v3h-3v-3Zm0,3.38v3.05h-3V37.87Zm0,3.38v3h-3v-3Zm0,3.39v3h-3v-3Zm0,3.38v3h-3V48Zm0,3.38v3.05h-3V51.4Zm0,3.39v3h-3v-3Zm0,3.38v3h-3v-3Zm0,3.38v3h-3v-3Zm0,3.39v3h-3v-3Zm0,3.38v3.05h-3V68.32Zm0,3.38v3h-3v-3Zm0,3.39v3h-3v-3Zm3.38-33.84v3h-3v-3Zm0,33.84v3h-3v-3Zm3.39-33.84v3h-3.05v-3Zm0,33.84v3h-3.05v-3Zm3.38-33.84v3h-3v-3Zm0,33.84v3h-3v-3Zm3.38-33.84v3h-3v-3Zm0,33.84v3h-3v-3Zm3.39-33.84v3h-3.05v-3Zm0,33.84v3h-3.05v-3Zm3.38,0v3h-3v-3Z" transform="translate(-16.19 -20.95)"/><path d="M266.21,78.47v3h-3v-3Zm3.38-33.83v3h-3v-3Zm0,3.38v3h-3V48Zm0,3.38v3.05h-3V51.4Zm0,3.39v3h-3v-3Zm0,3.38v3h-3v-3Zm0,3.38v3h-3v-3Zm0,3.39v3h-3v-3Zm0,13.53v3h-3v-3ZM273,24.34v3h-3.05v-3Zm0,3.38v3.05h-3.05V27.72Zm0,3.38v3h-3.05v-3Zm0,3.39v3h-3.05v-3Zm0,3.38v3.05h-3.05V37.87Zm0,6.77v3h-3.05v-3Zm0,30.45v3h-3.05v-3Zm3.38-50.75v3h-3v-3Zm0,13.53v3.05h-3V37.87Zm0,6.77v3h-3v-3Zm0,30.45v3h-3v-3Zm3.38-50.75v3h-3v-3Zm0,13.53v3.05h-3V37.87Zm0,6.77v3h-3v-3Zm0,27.06v3h-3v-3Zm3.39-47.36v3h-3.05v-3Zm0,13.53v3.05h-3.05V37.87Zm0,6.77v3h-3.05v-3Zm0,27.06v3h-3.05v-3Zm3.38-47.36v3h-3v-3Zm0,13.53v3.05h-3V37.87Zm0,6.77v3h-3v-3Zm0,23.68v3.05h-3V68.32Zm3.38-44v3h-3v-3Zm0,13.53v3.05h-3V37.87Zm0,6.77v3h-3v-3Zm0,10.15v3h-3v-3Zm0,3.38v3h-3v-3Zm0,3.38v3h-3v-3Zm0,3.39v3h-3v-3Zm3.39-40.6v3h-3v-3Zm0,13.53v3.05h-3V37.87Zm0,6.77v3h-3v-3Zm0,23.68v3.05h-3V68.32Zm3.38-44v3h-3.05v-3Zm0,13.53v3.05h-3.05V37.87Zm0,6.77v3h-3.05v-3Zm0,23.68v3.05h-3.05V68.32Zm3.38-44v3h-3v-3Zm0,13.53v3.05h-3V37.87Zm0,6.77v3h-3v-3Zm0,27.06v3h-3v-3Zm3.39-47.36v3h-3.05v-3Zm0,13.53v3.05h-3.05V37.87Zm0,6.77v3h-3.05v-3Zm0,27.06v3h-3.05v-3Zm3.38-47.36v3h-3.05v-3Zm0,3.38v3.05h-3.05V27.72Zm0,3.38v3h-3.05v-3Zm0,3.39v3h-3.05v-3Zm0,3.38v3.05h-3.05V37.87Zm0,6.77v3h-3.05v-3Zm0,30.45v3h-3.05v-3Zm3.38-30.45v3h-3v-3Zm0,3.38v3h-3V48Zm0,3.38v3.05h-3V51.4Zm0,3.39v3h-3v-3Zm0,3.38v3h-3v-3Zm0,3.38v3h-3v-3Zm0,3.39v3h-3v-3Zm0,10.15v3h-3v-3Zm3.39,3.38v3h-3.05v-3Z" transform="translate(-16.19 -20.95)"/><path d="M327.11,58.17v3h-3.05v-3Zm0,3.38v3h-3.05v-3Zm0,3.39v3h-3.05v-3Zm0,3.38v3.05h-3.05V68.32Zm0,3.38v3h-3.05v-3Zm0,3.39v3h-3.05v-3Zm3.38-44v3h-3v-3Zm0,3.39v3h-3v-3Zm0,3.38v3.05h-3V37.87Zm0,3.38v3h-3v-3Zm0,3.39v3h-3v-3Zm0,3.38v3h-3V48Zm0,27.07v3h-3v-3ZM333.88,48v3h-3.05V48Zm0,27.07v3h-3.05v-3ZM337.26,48v3h-3.05V48Zm0,27.07v3h-3.05v-3ZM340.64,48v3h-3V48Zm0,27.07v3h-3v-3ZM344,48v3h-3V48Zm0,27.07v3h-3v-3ZM347.41,48v3h-3.05V48Zm0,27.07v3h-3.05v-3ZM350.79,21V24h-3V21Zm0,3.39v3h-3v-3Zm0,3.38v3.05h-3V27.72Zm0,3.38v3h-3v-3Zm0,3.39v3h-3v-3Zm0,3.38v3.05h-3V37.87Zm0,3.38v3h-3v-3Zm0,3.39v3h-3v-3Zm0,3.38v3h-3V48Zm0,3.38v3.05h-3V51.4Zm0,3.39v3h-3v-3Zm0,3.38v3h-3v-3Zm0,3.38v3h-3v-3Zm0,3.39v3h-3v-3Zm0,3.38v3.05h-3V68.32Zm0,3.38v3h-3v-3Zm0,3.39v3h-3v-3ZM354.17,48v3h-3V48Zm0,27.07v3h-3v-3ZM357.56,48v3h-3.05V48Zm0,27.07v3h-3.05v-3ZM360.94,48v3h-3V48Zm0,27.07v3h-3v-3ZM364.32,48v3h-3V48Zm0,27.07v3h-3v-3ZM367.71,48v3h-3V48Zm0,27.07v3h-3v-3Zm3.38-44v3h-3v-3Zm0,3.39v3h-3v-3Zm0,3.38v3.05h-3V37.87Zm0,3.38v3h-3v-3Zm0,3.39v3h-3v-3Zm0,3.38v3h-3V48Zm0,27.07v3h-3v-3Zm3.38-16.92v3h-3v-3Zm0,3.38v3h-3v-3Zm0,3.39v3h-3v-3Zm0,3.38v3.05h-3V68.32Zm0,3.38v3h-3v-3Zm0,3.39v3h-3v-3Zm0,3.38v3h-3v-3Z" transform="translate(-16.19 -20.95)"/><path d="M384.62,68.32v3.05h-3V68.32ZM388,27.72v3.05H385V27.72ZM388,48v3H385V48Zm0,20.3v3.05H385V68.32Zm0,3.38v3H385v-3Zm3.38-44v3.05h-3V27.72Zm0,20.3v3h-3V48Zm0,20.3v3.05h-3V68.32Zm3.38-40.6v3.05h-3V27.72Zm0,3.38v3h-3v-3Zm0,3.39v3h-3v-3Zm0,3.38v3.05h-3V37.87Zm0,3.38v3h-3v-3Zm0,3.39v3h-3v-3Zm0,3.38v3h-3V48Zm0,3.38v3.05h-3V51.4Zm0,3.39v3h-3v-3Zm0,3.38v3h-3v-3Zm0,3.38v3h-3v-3Zm0,3.39v3h-3v-3Zm0,3.38v3.05h-3V68.32Zm3.39-40.6v3.05h-3.05V27.72Zm0,20.3v3h-3.05V48Zm0,16.92v3h-3.05v-3Zm3.38-37.22v3.05h-3V27.72Zm0,20.3v3h-3V48Zm0,16.92v3h-3v-3Zm0,13.53v3h-3v-3Zm3.38-13.53v3h-3v-3Zm0,13.53v3h-3v-3Zm3.39-54.13v3h-3.05v-3Zm0,3.38v3.05h-3.05V27.72Zm0,3.38v3h-3.05v-3Zm0,3.39v3h-3.05v-3Zm0,3.38v3.05h-3.05V37.87Zm0,3.38v3h-3.05v-3Zm0,3.39v3h-3.05v-3Zm0,3.38v3h-3.05V48Zm0,3.38v3.05h-3.05V51.4Zm0,3.39v3h-3.05v-3Zm0,20.3v3h-3.05v-3Zm3.38-50.75v3h-3v-3Zm0,47.36v3h-3v-3Zm3.38-47.36v3h-3v-3Zm0,40.6v3h-3v-3Zm0,3.38v3.05h-3V68.32Zm3.39-44v3h-3v-3Zm0,30.45v3h-3v-3Zm0,3.38v3h-3v-3Zm0,3.38v3h-3v-3Zm3.38-37.21v3h-3v-3Zm0,10.15v3h-3v-3Zm0,3.38v3.05h-3V37.87Zm0,3.38v3h-3v-3Zm0,3.39v3h-3v-3Zm0,3.38v3h-3V48Zm0,3.38v3.05h-3V51.4Zm3.38-27.06v3h-3v-3Zm0,30.45v3h-3v-3Zm0,3.38v3h-3v-3Zm0,3.38v3h-3v-3Zm0,3.39v3h-3v-3Zm0,3.38v3.05h-3V68.32Zm0,3.38v3h-3v-3Zm0,3.39v3h-3v-3Zm3.39-50.75v3h-3.05v-3Zm0,54.13v3h-3.05v-3ZM432,24.34v3h-3.05v-3Zm0,54.13v3h-3.05v-3Zm3.38-54.13v3h-3v-3Zm0,3.38v3.05h-3V27.72Zm0,3.38v3h-3v-3Zm0,3.39v3h-3v-3Zm0,3.38v3.05h-3V37.87Zm0,3.38v3h-3v-3Zm0,3.39v3h-3v-3Zm0,3.38v3h-3V48Zm0,3.38v3.05h-3V51.4Zm0,3.39v3h-3v-3Zm0,23.68v3h-3v-3Zm3.39-10.15v3.05h-3.05V68.32Zm0,3.38v3h-3.05v-3Zm0,3.39v3h-3.05v-3Zm0,3.38v3h-3.05v-3Z" transform="translate(-16.19 -20.95)"/><path d="M448.91,24.34v3h-3.05v-3Zm3.38,0v3h-3.05v-3Zm3.38,0v3h-3v-3Zm3.39,0v3H456v-3Zm3.38,0v3h-3.05v-3Zm3.38,0v3h-3v-3Zm0,50.75v3h-3v-3Zm3.39-50.75v3h-3v-3Zm0,54.13v3h-3v-3Zm3.38-54.13v3h-3v-3Zm0,20.3v3h-3v-3Zm0,3.38v3h-3V48Zm0,3.38v3.05h-3V51.4Zm0,3.39v3h-3v-3Zm0,3.38v3h-3v-3Zm0,3.38v3h-3v-3Zm0,3.39v3h-3v-3Zm0,3.38v3.05h-3V68.32Zm0,3.38v3h-3v-3Zm0,3.39v3h-3v-3ZM476,24.34v3h-3v-3Zm0,16.91v3h-3v-3Zm3.38-16.91v3h-3v-3Zm0,13.53v3.05h-3V37.87Zm3.39-13.53v3h-3.05v-3Zm0,10.15v3h-3.05v-3Zm3.38-10.15v3h-3v-3Zm0,6.76v3h-3v-3Zm3.38-6.76v3h-3v-3Zm0,3.38v3.05h-3V27.72Zm3.39-3.38v3h-3.05v-3Z" transform="translate(-16.19 -20.95)"/><path d="M520,27.72v3.05h-3V27.72Zm0,3.38v3h-3v-3Zm0,3.39v3h-3v-3Zm0,3.38v3.05h-3V37.87Zm0,3.38v3h-3v-3Zm0,3.39v3h-3v-3ZM520,48v3h-3V48Zm0,3.38v3.05h-3V51.4Zm0,3.39v3h-3v-3Zm0,3.38v3h-3v-3Zm0,10.15v3.05h-3V68.32Zm0,3.38v3h-3v-3Zm3.39-44v3.05h-3.05V27.72Zm0,3.38v3h-3.05v-3Zm0,3.39v3h-3.05v-3Zm0,3.38v3.05h-3.05V37.87Zm0,3.38v3h-3.05v-3Zm0,3.39v3h-3.05v-3Zm0,3.38v3h-3.05V48Zm0,3.38v3.05h-3.05V51.4Zm0,3.39v3h-3.05v-3Zm0,3.38v3h-3.05v-3Zm0,10.15v3.05h-3.05V68.32Zm0,3.38v3h-3.05v-3Z" transform="translate(-16.19 -20.95)"/><path d="M19.23,170.09v3h-3v-3Zm3.39-50.75v3H19.57v-3Zm0,3.38v3H19.57v-3Zm0,3.38v3.05H19.57V126.1Zm0,3.39v3H19.57v-3Zm0,3.38v3H19.57v-3Zm0,3.38v3.05H19.57v-3.05Zm0,3.39v3H19.57v-3Zm0,3.38v3H19.57v-3Zm0,3.38v3H19.57v-3Zm0,10.15v3H19.57v-3Zm0,13.54v3H19.57v-3Zm0,3.38v3H19.57v-3ZM26,119.34v3H23v-3Zm0,13.53v3H23v-3Zm0,13.53v3H23v-3Zm0,10.15v3H23v-3Zm0,13.54v3H23v-3Zm3.38-50.75v3h-3v-3Zm0,13.53v3h-3v-3Zm0,13.53v3h-3v-3Zm0,10.15v3h-3v-3Zm0,13.54v3h-3v-3Zm3.39-50.75v3H29.72v-3Zm0,3.38v3H29.72v-3Zm0,3.38v3.05H29.72V126.1Zm0,3.39v3H29.72v-3Zm0,3.38v3H29.72v-3Zm0,3.38v3.05H29.72v-3.05Zm0,3.39v3H29.72v-3Zm0,3.38v3H29.72v-3Zm0,3.38v3H29.72v-3Zm0,3.39v3H29.72v-3Zm0,3.38v3.05H29.72v-3.05Zm0,3.38v3H29.72v-3Zm0,3.39v3H29.72v-3Zm0,3.38v3.05H29.72v-3.05Zm0,3.38v3.05H29.72V166.7Zm3.38-47.36v3h-3v-3Zm0,13.53v3h-3v-3Zm0,13.53v3h-3v-3Zm0,10.15v3h-3v-3Zm0,10.15v3.05h-3V166.7Zm3.38-47.36v3h-3v-3Zm0,13.53v3h-3v-3Zm0,13.53v3h-3v-3Zm0,10.15v3h-3v-3Zm0,10.15v3.05h-3V166.7Zm3.39-47.36v3H39.87v-3Zm0,3.38v3H39.87v-3Zm0,3.38v3.05H39.87V126.1Zm0,3.39v3H39.87v-3Zm0,3.38v3H39.87v-3Zm0,3.38v3.05H39.87v-3.05Zm0,3.39v3H39.87v-3Zm0,3.38v3H39.87v-3Zm0,3.38v3H39.87v-3Zm0,10.15v3H39.87v-3Zm0,10.15v3.05H39.87V166.7Zm3.38-27.06v3h-3v-3Zm3.38-20.3v3h-3v-3Zm0,20.3v3h-3v-3Zm3.39-20.3v3H50v-3Zm0,6.76v3.05H50V126.1Zm0,13.54v3H50v-3Zm0,30.45v3H50v-3Zm3.38-50.75v3H53.4v-3Zm0,10.15v3H53.4v-3Zm0,10.15v3H53.4v-3Zm0,33.83v3H53.4v-3Zm3.38-54.13v3h-3v-3Zm0,13.53v3h-3v-3Zm0,6.77v3h-3v-3Zm0,3.38v3h-3v-3Zm0,3.38v3h-3v-3Zm0,3.39v3h-3v-3Zm0,3.38v3.05h-3v-3.05Zm0,3.38v3h-3v-3Zm0,3.39v3h-3v-3Zm0,3.38v3.05h-3v-3.05Zm0,3.38v3.05h-3V166.7Zm0,3.39v3h-3v-3Zm3.39-50.75v3h-3v-3Zm0,10.15v3h-3v-3Zm0,6.76v3.05h-3v-3.05Zm0,3.39v3h-3v-3Zm3.38-20.3v3h-3v-3Zm0,6.76v3.05h-3V126.1Zm0,13.54v3h-3v-3ZM70,119.34v3h-3v-3Zm0,3.38v3h-3v-3Zm0,16.92v3h-3v-3Zm0,6.76v3h-3v-3Zm3.39-6.76v3H70.32v-3Zm0,3.38v3H70.32v-3Z" transform="translate(-16.19 -20.95)"/><path d="M80.13,139.64v3h-3v-3Zm0,30.45v3h-3v-3Zm3.39-33.84v3.05h-3v-3.05Zm0,33.84v3h-3v-3Zm3.38-40.6v3H83.85v-3Zm0,3.38v3H83.85v-3Zm0,16.92v3H83.85v-3Zm0,20.3v3H83.85v-3Zm3.38-50.75v3h-3v-3Zm0,3.38v3h-3v-3Zm0,3.38v3.05h-3V126.1Zm0,3.39v3h-3v-3Zm0,20.3v3h-3v-3Zm0,20.3v3h-3v-3Zm3.39-40.6v3h-3v-3Zm0,20.3v3h-3v-3Zm0,20.3v3h-3v-3Zm3.38-40.6v3H94v-3Zm0,20.3v3H94v-3Zm0,20.3v3H94v-3Zm3.38-40.6v3h-3v-3Zm0,20.3v3h-3v-3Zm0,20.3v3h-3v-3Zm3.38-40.6v3h-3v-3Zm0,20.3v3h-3v-3Zm0,20.3v3h-3v-3ZM107.2,116v3h-3v-3Zm0,3.39v3h-3v-3Zm0,3.38v3h-3v-3Zm0,3.38v3.05h-3V126.1Zm0,3.39v3h-3v-3Zm0,3.38v3h-3v-3Zm0,3.38v3.05h-3v-3.05Zm0,3.39v3h-3v-3Zm0,3.38v3h-3v-3Zm0,3.38v3h-3v-3Zm0,3.39v3h-3v-3Zm0,3.38v3.05h-3v-3.05Zm0,3.38v3h-3v-3Zm0,3.39v3h-3v-3Zm0,3.38v3.05h-3v-3.05Zm0,3.38v3.05h-3V166.7Zm0,3.39v3h-3v-3Zm3.38-40.6v3h-3v-3Zm0,20.3v3h-3v-3Zm0,20.3v3h-3v-3Zm3.38-40.6v3h-3v-3Zm0,20.3v3h-3v-3Zm0,20.3v3h-3v-3Zm3.39-40.6v3h-3v-3Zm0,20.3v3h-3v-3Zm0,20.3v3h-3v-3Zm3.38-40.6v3h-3v-3Zm0,20.3v3h-3v-3Zm0,20.3v3h-3v-3Zm3.38-40.6v3h-3v-3Zm0,20.3v3h-3v-3Zm0,20.3v3h-3v-3Zm3.39-40.6v3h-3v-3Zm0,20.3v3h-3v-3Zm0,20.3v3h-3v-3Zm3.38-40.6v3h-3v-3Zm0,40.6v3h-3v-3Zm3.38,0v3h-3v-3Z" transform="translate(-16.19 -20.95)"/><path d="M144.41,126.1v3.05h-3V126.1Zm0,3.39v3h-3v-3Zm0,3.38v3h-3v-3Zm0,3.38v3.05h-3v-3.05Zm0,3.39v3h-3v-3Zm0,3.38v3h-3v-3Zm0,3.38v3h-3v-3Zm0,3.39v3h-3v-3Zm0,3.38v3.05h-3v-3.05Zm0,3.38v3h-3v-3Zm0,3.39v3h-3v-3Zm0,3.38v3.05h-3v-3.05Zm0,3.38v3.05h-3V166.7Zm0,3.39v3h-3v-3Zm3.39-47.37v3h-3.05v-3Zm0,3.38v3.05h-3.05V126.1Zm0,20.3v3h-3.05v-3Zm0,20.3v3.05h-3.05V166.7Zm3.38-47.36v3h-3v-3Zm0,6.76v3.05h-3V126.1Zm0,20.3v3h-3v-3Zm0,20.3v3.05h-3V166.7ZM154.56,116v3h-3v-3Zm0,10.15v3.05h-3V126.1Zm0,20.3v3h-3v-3Zm0,20.3v3.05h-3V166.7ZM158,126.1v3.05h-3V126.1Zm0,20.3v3h-3v-3Zm0,20.3v3.05h-3V166.7Zm3.38-40.6v3.05h-3V126.1Zm0,3.39v3h-3v-3Zm0,3.38v3h-3v-3Zm0,3.38v3.05h-3v-3.05Zm0,3.39v3h-3v-3Zm0,3.38v3h-3v-3Zm0,3.38v3h-3v-3Zm0,3.39v3h-3v-3Zm0,3.38v3.05h-3v-3.05Zm0,3.38v3h-3v-3Zm0,3.39v3h-3v-3Zm0,3.38v3.05h-3v-3.05Zm0,3.38v3.05h-3V166.7Zm0,3.39v3h-3v-3Zm3.38-37.22v3h-3v-3Zm3.39-3.38v3h-3v-3Zm3.38-6.77v3h-3v-3Zm0,3.38v3.05h-3V126.1Zm0,13.54v3h-3v-3ZM174.86,116v3h-3v-3Zm0,3.39v3h-3v-3Zm0,6.76v3.05h-3V126.1Zm0,16.92v3h-3v-3Zm3.39-16.92v3.05H175.2V126.1Zm0,20.3v3H175.2v-3Zm0,3.39v3H175.2v-3Zm3.38-23.69v3.05h-3V126.1Zm0,44v3h-3v-3Zm3.38-44v3.05h-3V126.1Zm0,47.37v3h-3v-3Zm3.39-47.37v3.05h-3.05V126.1Zm0,44v3h-3.05v-3Zm3.38-44v3.05h-3.05V126.1Zm0,3.39v3h-3.05v-3Zm0,3.38v3h-3.05v-3Zm0,3.38v3.05h-3.05v-3.05Zm0,3.39v3h-3.05v-3Zm0,3.38v3h-3.05v-3Zm0,3.38v3h-3.05v-3Zm0,3.39v3h-3.05v-3Zm0,3.38v3.05h-3.05v-3.05Zm0,3.38v3h-3.05v-3Zm0,3.39v3h-3.05v-3Zm0,3.38v3.05h-3.05v-3.05Zm0,3.38v3.05h-3.05V166.7Z" transform="translate(-16.19 -20.95)"/><path d="M201.93,126.1v3.05h-3.05V126.1Zm0,23.69v3h-3.05v-3Zm3.38-23.69v3.05h-3V126.1Zm0,20.3v3h-3v-3ZM208.7,116v3h-3v-3Zm0,10.15v3.05h-3V126.1Zm0,16.92v3h-3v-3Zm3.38-23.68v3H209v-3Zm0,6.76v3.05H209V126.1Zm0,10.15v3.05H209v-3.05Zm0,3.39v3H209v-3Zm0,3.38v3H209v-3Zm0,3.38v3H209v-3Zm0,3.39v3H209v-3Zm0,3.38v3.05H209v-3.05Zm0,3.38v3H209v-3Zm0,3.39v3H209v-3Zm0,3.38v3.05H209v-3.05Zm0,3.38v3.05H209V166.7Zm0,3.39v3H209v-3Zm0,3.38v3H209v-3Zm3.38-47.37v3.05h-3V126.1Zm0,3.39v3h-3v-3Zm0,3.38v3h-3v-3Zm0,10.15v3h-3v-3Zm3.39,3.38v3h-3v-3Zm0,3.39v3h-3v-3Zm0,20.3v3h-3v-3Zm3.38-33.84v3.05h-3v-3.05Zm0,33.84v3h-3v-3Zm3.38-33.84v3.05h-3v-3.05Zm0,33.84v3h-3v-3ZM229,136.25v3.05H226v-3.05Zm0,33.84v3H226v-3Zm3.38-33.84v3.05h-3v-3.05Zm0,33.84v3h-3v-3ZM235.76,116v3h-3v-3Zm0,3.39v3h-3v-3Zm0,3.38v3h-3v-3Zm0,3.38v3.05h-3V126.1Zm0,3.39v3h-3v-3Zm0,3.38v3h-3v-3Zm0,3.38v3.05h-3v-3.05Zm0,3.39v3h-3v-3Zm0,3.38v3h-3v-3Zm0,3.38v3h-3v-3Zm0,3.39v3h-3v-3Zm0,3.38v3.05h-3v-3.05Zm0,3.38v3h-3v-3Zm0,3.39v3h-3v-3Zm0,3.38v3.05h-3v-3.05Zm0,3.38v3.05h-3V166.7Zm0,3.39v3h-3v-3Zm3.38-33.84v3.05h-3v-3.05Zm0,33.84v3h-3v-3Zm3.39-33.84v3.05h-3.05v-3.05Zm0,33.84v3h-3.05v-3Zm3.38-33.84v3.05h-3v-3.05Zm0,33.84v3h-3v-3Zm3.38-33.84v3.05h-3v-3.05Zm0,33.84v3h-3v-3Zm3.39-33.84v3.05h-3.05v-3.05Zm0,33.84v3h-3.05v-3Zm3.38,0v3h-3v-3Z" transform="translate(-16.19 -20.95)"/><path d="M266.21,173.47v3h-3v-3Zm3.38-33.83v3h-3v-3Zm0,3.38v3h-3v-3Zm0,3.38v3h-3v-3Zm0,3.39v3h-3v-3Zm0,3.38v3.05h-3v-3.05Zm0,3.38v3h-3v-3Zm0,3.39v3h-3v-3Zm0,13.53v3h-3v-3ZM273,119.34v3h-3.05v-3Zm0,3.38v3h-3.05v-3Zm0,3.38v3.05h-3.05V126.1Zm0,3.39v3h-3.05v-3Zm0,3.38v3h-3.05v-3Zm0,6.77v3h-3.05v-3Zm0,30.45v3h-3.05v-3Zm3.38-50.75v3h-3v-3Zm0,13.53v3h-3v-3Zm0,6.77v3h-3v-3Zm0,30.45v3h-3v-3Zm3.38-50.75v3h-3v-3Zm0,13.53v3h-3v-3Zm0,6.77v3h-3v-3Zm0,27.06v3.05h-3V166.7Zm3.39-47.36v3h-3.05v-3Zm0,13.53v3h-3.05v-3Zm0,6.77v3h-3.05v-3Zm0,27.06v3.05h-3.05V166.7Zm3.38-47.36v3h-3v-3Zm0,13.53v3h-3v-3Zm0,6.77v3h-3v-3Zm0,23.68v3.05h-3v-3.05Zm3.38-44v3h-3v-3Zm0,13.53v3h-3v-3Zm0,6.77v3h-3v-3Zm0,10.15v3h-3v-3Zm0,3.38v3.05h-3v-3.05Zm0,3.38v3h-3v-3Zm0,3.39v3h-3v-3Zm3.39-40.6v3h-3v-3Zm0,13.53v3h-3v-3Zm0,6.77v3h-3v-3Zm0,23.68v3.05h-3v-3.05Zm3.38-44v3h-3.05v-3Zm0,13.53v3h-3.05v-3Zm0,6.77v3h-3.05v-3Zm0,23.68v3.05h-3.05v-3.05Zm3.38-44v3h-3v-3Zm0,13.53v3h-3v-3Zm0,6.77v3h-3v-3Zm0,27.06v3.05h-3V166.7Zm3.39-47.36v3h-3.05v-3Zm0,13.53v3h-3.05v-3Zm0,6.77v3h-3.05v-3Zm0,27.06v3.05h-3.05V166.7Zm3.38-47.36v3h-3.05v-3Zm0,3.38v3h-3.05v-3Zm0,3.38v3.05h-3.05V126.1Zm0,3.39v3h-3.05v-3Zm0,3.38v3h-3.05v-3Zm0,6.77v3h-3.05v-3Zm0,30.45v3h-3.05v-3Zm3.38-30.45v3h-3v-3Zm0,3.38v3h-3v-3Zm0,3.38v3h-3v-3Zm0,3.39v3h-3v-3Zm0,3.38v3.05h-3v-3.05Zm0,3.38v3h-3v-3Zm0,3.39v3h-3v-3Zm0,10.15v3h-3v-3Zm3.39,3.38v3h-3.05v-3Z" transform="translate(-16.19 -20.95)"/><path d="M323.73,126.1v3.05h-3.05V126.1Zm0,23.69v3h-3.05v-3Zm3.38-23.69v3.05h-3.05V126.1Zm0,20.3v3h-3.05v-3ZM330.49,116v3h-3v-3Zm0,10.15v3.05h-3V126.1Zm0,16.92v3h-3v-3Zm3.39-23.68v3h-3.05v-3Zm0,6.76v3.05h-3.05V126.1Zm0,10.15v3.05h-3.05v-3.05Zm0,3.39v3h-3.05v-3Zm0,3.38v3h-3.05v-3Zm0,3.38v3h-3.05v-3Zm0,3.39v3h-3.05v-3Zm0,3.38v3.05h-3.05v-3.05Zm0,3.38v3h-3.05v-3Zm0,3.39v3h-3.05v-3Zm0,3.38v3.05h-3.05v-3.05Zm0,3.38v3.05h-3.05V166.7Zm0,3.39v3h-3.05v-3Zm0,3.38v3h-3.05v-3Zm3.38-47.37v3.05h-3.05V126.1Zm0,3.39v3h-3.05v-3Zm0,3.38v3h-3.05v-3Zm0,10.15v3h-3.05v-3Zm3.38-3.38v3h-3v-3Zm0,6.76v3h-3v-3Zm0,3.39v3h-3v-3Zm0,23.68v3h-3v-3ZM344,166.7v3.05h-3V166.7Zm0,3.39v3h-3v-3Zm3.38-44v3.05h-3.05V126.1Zm0,3.39v3h-3.05v-3Zm0,3.38v3h-3.05v-3Zm0,3.38v3.05h-3.05v-3.05Zm0,3.39v3h-3.05v-3Zm0,3.38v3h-3.05v-3Zm0,3.38v3h-3.05v-3Zm0,3.39v3h-3.05v-3Zm0,3.38v3.05h-3.05v-3.05Zm0,3.38v3h-3.05v-3Zm0,3.39v3h-3.05v-3Zm0,3.38v3.05h-3.05v-3.05Zm3.38-37.22v3.05h-3V126.1Zm0,16.92v3h-3v-3Zm0,30.45v3h-3v-3Zm3.38-47.37v3.05h-3V126.1Zm0,16.92v3h-3v-3Zm0,3.38v3h-3v-3Zm0,3.39v3h-3v-3Zm0,3.38v3.05h-3v-3.05Zm0,20.3v3h-3v-3Zm3.39-47.37v3.05h-3.05V126.1Zm0,16.92v3h-3.05v-3Zm0,13.53v3h-3.05v-3Zm0,13.54v3h-3.05v-3Zm3.38-44v3.05h-3V126.1Zm0,16.92v3h-3v-3Zm0,16.92v3h-3v-3Zm0,6.76v3.05h-3V166.7ZM364.32,116v3h-3v-3Zm0,3.39v3h-3v-3Zm0,3.38v3h-3v-3Zm0,3.38v3.05h-3V126.1Zm0,3.39v3h-3v-3Zm0,3.38v3h-3v-3Zm0,3.38v3.05h-3v-3.05Zm0,3.39v3h-3v-3Zm0,3.38v3h-3v-3Zm0,20.3v3.05h-3v-3.05Zm3.39-37.22v3.05h-3V126.1Zm0,16.92v3h-3v-3Zm0,16.92v3h-3v-3Zm0,6.76v3.05h-3V166.7Zm3.38-40.6v3.05h-3V126.1Zm0,16.92v3h-3v-3Zm0,13.53v3h-3v-3Zm0,13.54v3h-3v-3Zm3.38-44v3.05h-3V126.1Zm0,6.77v3h-3v-3Zm0,10.15v3h-3v-3Zm0,3.38v3h-3v-3Zm0,3.39v3h-3v-3Zm0,3.38v3.05h-3v-3.05Zm0,20.3v3h-3v-3Zm3.39-47.37v3.05h-3.05V126.1Zm0,3.39v3h-3.05v-3Zm0,44v3h-3.05v-3Z" transform="translate(-16.19 -20.95)"/><path d="M384.62,129.49v3h-3v-3Zm0,20.3v3h-3v-3Zm3.39-20.3v3H385v-3Zm0,20.3v3H385v-3Zm0,20.3v3H385v-3Zm3.38-40.6v3h-3v-3Zm0,16.91v3h-3v-3Zm0,27.07v3h-3v-3ZM394.77,116v3h-3v-3Zm0,3.39v3h-3v-3Zm0,3.38v3h-3v-3Zm0,3.38v3.05h-3V126.1Zm0,3.39v3h-3v-3Zm0,3.38v3h-3v-3Zm0,3.38v3.05h-3v-3.05Zm0,3.39v3h-3v-3Zm0,3.38v3h-3v-3Zm0,3.38v3h-3v-3Zm0,3.39v3h-3v-3Zm0,3.38v3.05h-3v-3.05Zm0,3.38v3h-3v-3Zm0,3.39v3h-3v-3Zm0,3.38v3.05h-3v-3.05Zm0,3.38v3.05h-3V166.7Zm0,3.39v3h-3v-3Zm3.39-40.6v3h-3.05v-3Zm0,13.53v3h-3.05v-3Zm0,30.45v3h-3.05v-3Zm3.38-44v3h-3v-3Zm0,10.15v3h-3v-3Zm0,30.45v3h-3v-3Zm3.38-6.77v3.05h-3v-3.05Zm0,3.38v3.05h-3V166.7Zm3.39-44v3h-3.05v-3Zm0,3.38v3.05h-3.05V126.1Zm0,3.39v3h-3.05v-3Zm0,3.38v3h-3.05v-3Zm0,3.38v3.05h-3.05v-3.05Zm0,3.39v3h-3.05v-3Zm0,3.38v3h-3.05v-3Zm0,3.38v3h-3.05v-3Zm0,3.39v3h-3.05v-3Zm0,3.38v3.05h-3.05v-3.05Zm0,3.38v3h-3.05v-3Zm0,3.39v3h-3.05v-3Zm3.38-37.22v3h-3v-3Zm3.38,0v3h-3v-3Zm3.39-3.38v3h-3v-3Zm0,3.38v3h-3v-3Zm0,3.38v3.05h-3V126.1Zm0,3.39v3h-3v-3Zm0,3.38v3h-3v-3Zm0,3.38v3.05h-3v-3.05Zm0,3.39v3h-3v-3Zm0,3.38v3h-3v-3Zm0,3.38v3h-3v-3Zm0,3.39v3h-3v-3Zm0,3.38v3.05h-3v-3.05Zm0,3.38v3h-3v-3Zm0,3.39v3h-3v-3Zm0,3.38v3.05h-3v-3.05Zm0,3.38v3.05h-3V166.7Zm0,3.39v3h-3v-3Zm0,3.38v3h-3v-3Zm3.38-54.13v3h-3v-3Zm3.38,0v3h-3v-3Zm3.39-3.39v3h-3.05v-3Zm0,3.39v3h-3.05v-3Zm0,3.38v3h-3.05v-3Zm0,3.38v3.05h-3.05V126.1Zm0,3.39v3h-3.05v-3Zm0,3.38v3h-3.05v-3Zm0,3.38v3.05h-3.05v-3.05Zm0,3.39v3h-3.05v-3Zm0,3.38v3h-3.05v-3Zm0,3.38v3h-3.05v-3Zm0,3.39v3h-3.05v-3ZM432,119.34v3h-3.05v-3Zm0,33.83v3.05h-3.05v-3.05Zm0,3.38v3h-3.05v-3Zm0,3.39v3h-3.05v-3Zm0,3.38v3.05h-3.05v-3.05Zm3.38-44v3h-3v-3Zm0,47.36v3.05h-3V166.7Zm0,3.39v3h-3v-3Zm3.39,3.38v3h-3.05v-3Z" transform="translate(-16.19 -20.95)"/><path d="M445.52,122.72v3h-3v-3Zm0,27.07v3h-3v-3Zm0,13.53v3.05h-3v-3.05Zm3.39-40.6v3h-3.05v-3Zm0,10.15v3h-3.05v-3Zm0,13.53v3h-3.05v-3Zm0,13.54v3h-3.05v-3Zm0,10.15v3h-3.05v-3Zm3.38-47.37v3h-3.05v-3Zm0,13.53v3.05h-3.05v-3.05Zm0,6.77v3h-3.05v-3Zm0,13.53v3h-3.05v-3Zm0,16.92v3h-3.05v-3Zm3.38-50.75v3h-3v-3Zm0,16.92v3h-3v-3Zm0,13.53v3.05h-3v-3.05Zm0,16.92v3h-3v-3Zm3.39-47.37v3H456v-3Zm0,10.15v3H456v-3Zm0,3.38v3.05H456v-3.05Zm0,6.77v3H456v-3Zm0,3.38v3H456v-3Zm0,3.39v3H456v-3Zm0,3.38v3.05H456v-3.05Zm0,3.38v3H456v-3Zm0,3.39v3H456v-3Zm0,3.38v3.05H456v-3.05Zm0,3.38v3.05H456V166.7ZM462.44,116v3h-3.05v-3Zm0,3.39v3h-3.05v-3Zm0,3.38v3h-3.05v-3Zm0,3.38v3.05h-3.05V126.1Zm0,3.39v3h-3.05v-3Zm0,44v3h-3.05v-3Zm3.38-50.75v3h-3v-3Zm0,20.3v3h-3v-3Zm0,27.07v3h-3v-3Zm3.39-47.37v3h-3v-3Zm0,20.3v3h-3v-3Zm0,23.68v3.05h-3V166.7Zm3.38-44v3h-3v-3Zm0,20.3v3h-3v-3Zm0,20.3v3.05h-3v-3.05Zm3.38-40.6v3h-3v-3Zm0,20.3v3h-3v-3Zm0,13.53v3h-3v-3Zm0,3.39v3h-3v-3Zm3.38-37.22v3h-3v-3Zm0,10.15v3h-3v-3Zm0,3.38v3.05h-3v-3.05Zm0,3.39v3h-3v-3Zm0,3.38v3h-3v-3Zm0,3.38v3h-3v-3Zm0,3.39v3h-3v-3Zm0,3.38v3.05h-3v-3.05ZM482.74,116v3h-3.05v-3Zm0,3.39v3h-3.05v-3Zm0,3.38v3h-3.05v-3Zm0,3.38v3.05h-3.05V126.1Zm0,3.39v3h-3.05v-3Zm0,13.53v3h-3.05v-3Zm0,13.53v3h-3.05v-3Zm0,3.39v3h-3.05v-3Zm3.38-37.22v3h-3v-3Zm0,20.3v3h-3v-3Zm0,20.3v3.05h-3v-3.05Zm3.38-40.6v3h-3v-3Zm0,10.15v3h-3v-3Zm0,10.15v3h-3v-3Zm0,23.68v3.05h-3V166.7Zm3.39-44v3h-3.05v-3Zm0,13.53v3.05h-3.05v-3.05Zm0,6.77v3h-3.05v-3Zm0,27.07v3h-3.05v-3Zm3.38-47.37v3h-3v-3Zm0,20.3v3h-3v-3Zm0,30.45v3h-3v-3Zm3.38-50.75v3h-3v-3Zm0,50.75v3h-3v-3Z" transform="translate(-16.19 -20.95)"/><path d="M509.8,119.34v3h-3v-3Zm3.39,0v3h-3.05v-3Zm3.38,0v3h-3v-3Zm3.38,0v3h-3v-3Zm3.39,0v3h-3.05v-3Zm3.38,0v3h-3v-3Zm0,50.75v3h-3v-3Zm3.38-50.75v3h-3v-3Zm0,54.13v3h-3v-3Zm3.39-54.13v3h-3v-3Zm0,20.3v3h-3v-3Zm0,3.38v3h-3v-3Zm0,3.38v3h-3v-3Zm0,3.39v3h-3v-3Zm0,3.38v3.05h-3v-3.05Zm0,3.38v3h-3v-3Zm0,3.39v3h-3v-3Zm0,3.38v3.05h-3v-3.05Zm0,3.38v3.05h-3V166.7Zm0,3.39v3h-3v-3Zm3.38-50.75v3h-3v-3Zm0,16.91v3.05h-3v-3.05Zm3.38-16.91v3h-3v-3Zm0,13.53v3h-3v-3Zm3.39-13.53v3h-3v-3Zm0,10.15v3h-3v-3ZM547,119.34v3h-3v-3Zm0,6.76v3.05h-3V126.1Zm3.38-6.76v3h-3v-3Zm0,3.38v3h-3v-3Zm3.39-3.38v3h-3v-3Z" transform="translate(-16.19 -20.95)"/><path d="M580.85,122.72v3h-3v-3Zm0,3.38v3.05h-3V126.1Zm0,3.39v3h-3v-3Zm0,3.38v3h-3v-3Zm0,3.38v3.05h-3v-3.05Zm0,3.39v3h-3v-3Zm0,3.38v3h-3v-3Zm0,3.38v3h-3v-3Zm0,3.39v3h-3v-3Zm0,3.38v3.05h-3v-3.05Zm0,10.15v3.05h-3v-3.05Zm0,3.38v3.05h-3V166.7Zm3.39-44v3h-3v-3Zm0,3.38v3.05h-3V126.1Zm0,3.39v3h-3v-3Zm0,3.38v3h-3v-3Zm0,3.38v3.05h-3v-3.05Zm0,3.39v3h-3v-3Zm0,3.38v3h-3v-3Zm0,3.38v3h-3v-3Zm0,3.39v3h-3v-3Zm0,3.38v3.05h-3v-3.05Zm0,10.15v3.05h-3v-3.05Zm0,3.38v3.05h-3V166.7Z" transform="translate(-16.19 -20.95)"/></svg>